<?xml version="1.0" encoding="UTF-8"?>
<svg xmlns="http://www.w3.org/2000/svg" viewBox="0 0 1100 360" width="1100" height="360">
<rect width="100%" height="100%" fill="#ffffff" />
<defs>
<marker id="arrowhead-1971c2" markerWidth="10" markerHeight="7" refX="10" refY="3.5" orient="auto" markerUnits="strokeWidth"><polygon points="0 0, 10 3.5, 0 7" fill="#1971c2" /></marker>
</defs>
<text x="570.0" y="50.599999999999994" fill="#1e1e1e" font-size="36" font-family="system-ui, sans-serif" text-anchor="middle">货币进化与权力转移</text>
<rect x="20" y="140" width="160" height="60" rx="8" fill="#a5d8ff" stroke="#1971c2" stroke-width="2" />
<text x="100.0" y="170.0" fill="#1e1e1e" font-size="20" font-family="system-ui, sans-serif" text-anchor="middle">实物货币</text>
<line x1="185" y1="170" x2="235" y2="170" stroke="#1971c2" stroke-width="2" marker-end="url(#arrowhead-1971c2)" />
<rect x="240" y="140" width="160" height="60" rx="8" fill="#74c0fc" stroke="#1971c2" stroke-width="2" />
<text x="320.0" y="170.0" fill="#1e1e1e" font-size="20" font-family="system-ui, sans-serif" text-anchor="middle">贵金属</text>
<line x1="405" y1="170" x2="455" y2="170" stroke="#1971c2" stroke-width="2" marker-end="url(#arrowhead-1971c2)" />
<rect x="460" y="140" width="160" height="60" rx="8" fill="#4dabf7" stroke="#1971c2" stroke-width="2" />
<text x="540.0" y="170.0" fill="#1e1e1e" font-size="20" font-family="system-ui, sans-serif" text-anchor="middle">纸币</text>
<line x1="625" y1="170" x2="675" y2="170" stroke="#1971c2" stroke-width="2" marker-end="url(#arrowhead-1971c2)" />
<rect x="680" y="140" width="160" height="60" rx="8" fill="#339af0" stroke="#1971c2" stroke-width="2" />
<text x="760.0" y="170.0" fill="#ffffff" font-size="20" font-family="system-ui, sans-serif" text-anchor="middle">法定货币</text>
<line x1="845" y1="170" x2="895" y2="170" stroke="#1971c2" stroke-width="2" marker-end="url(#arrowhead-1971c2)" />
<rect x="900" y="140" width="180" height="60" rx="8" fill="#1c7ed6" stroke="#1971c2" stroke-width="2" />
<text x="990.0" y="170.0" fill="#ffffff" font-size="20" font-family="system-ui, sans-serif" text-anchor="middle">央行数字货币</text>
<rect x="140" y="290" width="200" height="50" rx="8" fill="#d0ebff" stroke="#1971c2" stroke-width="1" stroke-dasharray="8,4" />
<text x="240.0" y="316.55" fill="#1971c2" font-size="18" font-family="system-ui, sans-serif" text-anchor="middle">布雷顿森林 (1944)</text>
<line x1="240" y1="285" x2="240" y2="210" stroke="#1971c2" stroke-width="1" stroke-dasharray="8,4" marker-end="url(#arrowhead-1971c2)" />
<rect x="480" y="290" width="200" height="50" rx="8" fill="#d0ebff" stroke="#1971c2" stroke-width="1" stroke-dasharray="8,4" />
<text x="580.0" y="316.55" fill="#1971c2" font-size="18" font-family="system-ui, sans-serif" text-anchor="middle">尼克松冲击 (1971)</text>
<line x1="580" y1="285" x2="580" y2="210" stroke="#1971c2" stroke-width="1" stroke-dasharray="8,4" marker-end="url(#arrowhead-1971c2)" />
<rect x="800" y="290" width="200" height="50" rx="8" fill="#d0ebff" stroke="#1971c2" stroke-width="1" stroke-dasharray="8,4" />
<text x="900.0" y="316.55" fill="#1971c2" font-size="18" font-family="system-ui, sans-serif" text-anchor="middle">QE时代 (2008+)</text>
<line x1="900" y1="285" x2="900" y2="210" stroke="#1971c2" stroke-width="1" stroke-dasharray="8,4" marker-end="url(#arrowhead-1971c2)" />
</svg>