<?xml version="1.0" encoding="UTF-8"?>
<svg xmlns="http://www.w3.org/2000/svg" viewBox="0 0 1080 720" width="1080" height="720">
<rect width="100%" height="100%" fill="#ffffff" />
<defs>
<marker id="arrowhead-e67700" markerWidth="10" markerHeight="7" refX="10" refY="3.5" orient="auto" markerUnits="strokeWidth"><polygon points="0 0, 10 3.5, 0 7" fill="#e67700" /></marker>
</defs>
<text x="590.0" y="50.599999999999994" fill="#1e1e1e" font-size="36" font-family="system-ui, sans-serif" text-anchor="middle">五大矛盾与黄金定价</text>
<ellipse cx="560.0" cy="390.0" rx="90.0" ry="90.0" fill="#ffd43b" stroke="#e67700" stroke-width="2" />
<text x="560.0" y="393.4" fill="#1e1e1e" font-size="24" font-family="system-ui, sans-serif" text-anchor="middle">黄金定价</text>
<polygon points="190.0,120 290,170.0 190.0,220 90,170.0" fill="#fff3bf" stroke="#e67700" stroke-width="2" />
<text x="190.0" y="171.55" fill="#1e1e1e" font-size="18" font-family="system-ui, sans-serif" text-anchor="middle">债务 vs 增长</text>
<line x1="295" y1="195" x2="480" y2="335" stroke="#e67700" stroke-width="2" marker-end="url(#arrowhead-e67700)" />
<polygon points="900.0,120 1010,170.0 900.0,220 790,170.0" fill="#fff3bf" stroke="#e67700" stroke-width="2" />
<text x="900.0" y="171.55" fill="#1e1e1e" font-size="18" font-family="system-ui, sans-serif" text-anchor="middle">通胀 vs 通缩</text>
<line x1="790" y1="195" x2="640" y2="335" stroke="#e67700" stroke-width="2" marker-end="url(#arrowhead-e67700)" />
<polygon points="130.0,450 240,500.0 130.0,550 20,500.0" fill="#fff3bf" stroke="#e67700" stroke-width="2" />
<text x="130.0" y="501.55" fill="#1e1e1e" font-size="18" font-family="system-ui, sans-serif" text-anchor="middle">美元 vs 黄金</text>
<line x1="245" y1="485" x2="465" y2="405" stroke="#e67700" stroke-width="2" marker-end="url(#arrowhead-e67700)" />
<polygon points="950.0,450 1060,500.0 950.0,550 840,500.0" fill="#fff3bf" stroke="#e67700" stroke-width="2" />
<text x="950.0" y="501.55" fill="#1e1e1e" font-size="18" font-family="system-ui, sans-serif" text-anchor="middle">地缘政治风险</text>
<line x1="840" y1="485" x2="650" y2="405" stroke="#e67700" stroke-width="2" marker-end="url(#arrowhead-e67700)" />
<polygon points="550.0,600 660,650.0 550.0,700 440,650.0" fill="#fff3bf" stroke="#e67700" stroke-width="2" />
<text x="550.0" y="651.55" fill="#1e1e1e" font-size="18" font-family="system-ui, sans-serif" text-anchor="middle">央行购金</text>
<line x1="555" y1="595" x2="555" y2="485" stroke="#e67700" stroke-width="2" marker-end="url(#arrowhead-e67700)" />
</svg>