<?xml version="1.0" encoding="UTF-8"?>
<svg xmlns="http://www.w3.org/2000/svg" viewBox="0 0 1020 670" width="1020" height="670">
<rect width="100%" height="100%" fill="#ffffff" />
<defs>
<marker id="arrowhead-1971c2" markerWidth="10" markerHeight="7" refX="10" refY="3.5" orient="auto" markerUnits="strokeWidth"><polygon points="0 0, 10 3.5, 0 7" fill="#1971c2" /></marker>
<marker id="arrowhead-c92a2a" markerWidth="10" markerHeight="7" refX="10" refY="3.5" orient="auto" markerUnits="strokeWidth"><polygon points="0 0, 10 3.5, 0 7" fill="#c92a2a" /></marker>
</defs>
<text x="515.0" y="50.599999999999994" fill="#1e1e1e" font-size="36" font-family="system-ui, sans-serif" text-anchor="middle">中美金融延展性对比</text>
<rect x="20" y="100" width="280" height="55" rx="8" fill="#1971c2" stroke="#1971c2" stroke-width="2" />
<text x="160.0" y="136.3" fill="#ffffff" font-size="28" font-family="system-ui, sans-serif" text-anchor="middle">美国</text>
<rect x="20" y="175" width="280" height="50" rx="8" fill="#a5d8ff" stroke="#1971c2" stroke-width="2" />
<text x="160.0" y="205.0" fill="#1e1e1e" font-size="20" font-family="system-ui, sans-serif" text-anchor="middle">华尔街</text>
<rect x="20" y="245" width="280" height="50" rx="8" fill="#a5d8ff" stroke="#1971c2" stroke-width="2" />
<text x="160.0" y="275.0" fill="#1e1e1e" font-size="20" font-family="system-ui, sans-serif" text-anchor="middle">美元霸权</text>
<rect x="20" y="315" width="280" height="50" rx="8" fill="#a5d8ff" stroke="#1971c2" stroke-width="2" />
<text x="160.0" y="345.0" fill="#1e1e1e" font-size="20" font-family="system-ui, sans-serif" text-anchor="middle">SWIFT</text>
<rect x="20" y="385" width="280" height="50" rx="8" fill="#a5d8ff" stroke="#1971c2" stroke-width="2" />
<text x="160.0" y="415.0" fill="#1e1e1e" font-size="20" font-family="system-ui, sans-serif" text-anchor="middle">衍生品市场</text>
<rect x="20" y="455" width="280" height="50" rx="8" fill="#a5d8ff" stroke="#1971c2" stroke-width="2" />
<text x="160.0" y="485.0" fill="#1e1e1e" font-size="20" font-family="system-ui, sans-serif" text-anchor="middle">科技巨头</text>
<rect x="720" y="100" width="280" height="55" rx="8" fill="#c92a2a" stroke="#c92a2a" stroke-width="2" />
<text x="860.0" y="136.3" fill="#ffffff" font-size="28" font-family="system-ui, sans-serif" text-anchor="middle">中国</text>
<rect x="720" y="175" width="280" height="50" rx="8" fill="#ffc9c9" stroke="#c92a2a" stroke-width="2" />
<text x="860.0" y="205.0" fill="#1e1e1e" font-size="20" font-family="system-ui, sans-serif" text-anchor="middle">A股改革</text>
<rect x="720" y="245" width="280" height="50" rx="8" fill="#ffc9c9" stroke="#c92a2a" stroke-width="2" />
<text x="860.0" y="275.0" fill="#1e1e1e" font-size="20" font-family="system-ui, sans-serif" text-anchor="middle">人民币国际化</text>
<rect x="720" y="315" width="280" height="50" rx="8" fill="#ffc9c9" stroke="#c92a2a" stroke-width="2" />
<text x="860.0" y="345.0" fill="#1e1e1e" font-size="20" font-family="system-ui, sans-serif" text-anchor="middle">数字货币</text>
<rect x="720" y="385" width="280" height="50" rx="8" fill="#ffc9c9" stroke="#c92a2a" stroke-width="2" />
<text x="860.0" y="415.0" fill="#1e1e1e" font-size="20" font-family="system-ui, sans-serif" text-anchor="middle">金融科技</text>
<rect x="720" y="455" width="280" height="50" rx="8" fill="#ffc9c9" stroke="#c92a2a" stroke-width="2" />
<text x="860.0" y="485.0" fill="#1e1e1e" font-size="20" font-family="system-ui, sans-serif" text-anchor="middle">一带一路</text>
<rect x="370" y="580" width="280" height="70" rx="8" fill="#ffd43b" stroke="#e67700" stroke-width="2" />
<text x="510.0" y="607.0" fill="#1e1e1e" font-size="20" font-family="system-ui, sans-serif" text-anchor="middle">投资者策略</text>
<text x="510.0" y="632.0" fill="#1e1e1e" font-size="20" font-family="system-ui, sans-serif" text-anchor="middle">不选边，两边配置</text>
<line x1="240" y1="510" x2="390" y2="590" stroke="#1971c2" stroke-width="2" marker-end="url(#arrowhead-1971c2)" />
<line x1="780" y1="510" x2="630" y2="590" stroke="#c92a2a" stroke-width="2" marker-end="url(#arrowhead-c92a2a)" />
</svg>